<svg width="31" height="25" viewBox="0 0 31 25" fill="none" xmlns="http://www.w3.org/2000/svg">
<path d="M1 18.25L8.67238 10.3395C9.97913 8.99221 12.0978 8.99221 13.4045 10.3395L21.0769 18.25M18.8462 15.95L20.9416 13.7895C22.2484 12.4422 24.367 12.4422 25.6738 13.7895L30 18.25M3.23077 24H27.7692C29.0012 24 30 22.9703 30 21.7V3.3C30 2.02975 29.0012 1 27.7692 1H3.23077C1.99875 1 1 2.02975 1 3.3V21.7C1 22.9703 1.99875 24 3.23077 24ZM18.8462 6.75H18.8573V6.7615H18.8462V6.75ZM19.4038 6.75C19.4038 7.06756 19.1542 7.325 18.8462 7.325C18.5381 7.325 18.2885 7.06756 18.2885 6.75C18.2885 6.43244 18.5381 6.175 18.8462 6.175C19.1542 6.175 19.4038 6.43244 19.4038 6.75Z"  stroke-linecap="round" stroke-linejoin="round"/>
</svg>
