<svg width="29" height="29" viewBox="0 0 29 29" fill="none" xmlns="http://www.w3.org/2000/svg">
<path d="M11.3184 7.77827C13.0757 6.24058 15.925 6.24058 17.6823 7.77827C19.4397 9.31596 19.4397 11.809 17.6823 13.3467C17.3765 13.6144 17.0375 13.8354 16.677 14.0099C15.5585 14.5512 14.5003 15.5074 14.5003 16.75V17.875M28 14.5C28 21.9558 21.9558 28 14.5 28C7.04416 28 1 21.9558 1 14.5C1 7.04416 7.04416 1 14.5 1C21.9558 1 28 7.04416 28 14.5ZM14.5 22.375H14.5113V22.3863H14.5V22.375Z" stroke-linecap="round" stroke-linejoin="round"/>
</svg>
