<svg width="37" height="29" viewBox="0 0 37 29" fill="none" xmlns="http://www.w3.org/2000/svg">
<path d="M1 3.25C1 2.00736 1.90404 1 3.01923 1H13.7885C14.9037 1 15.8077 2.00736 15.8077 3.25V10.75C15.8077 11.9926 14.9037 13 13.7885 13H3.01923C1.90404 13 1 11.9926 1 10.75V3.25Z"  stroke-linecap="round" stroke-linejoin="round"/>
<path d="M22.5385 6.25C22.5385 5.00736 23.4425 4 24.5577 4H33.9808C35.096 4 36 5.00736 36 6.25V22.75C36 23.9926 35.096 25 33.9808 25H24.5577C23.4425 25 22.5385 23.9926 22.5385 22.75V6.25Z"  stroke-linecap="round" stroke-linejoin="round"/>
<path d="M3.69231 21.25C3.69231 20.0074 4.59635 19 5.71154 19H15.1346C16.2498 19 17.1538 20.0074 17.1538 21.25V25.75C17.1538 26.9926 16.2498 28 15.1346 28H5.71154C4.59635 28 3.69231 26.9926 3.69231 25.75V21.25Z"  stroke-linecap="round" stroke-linejoin="round"/>
</svg>
